<?xml version="1.0" encoding="utf-8"?><!DOCTYPE svg PUBLIC "-//W3C//DTD SVG 1.1//EN" "http://www.w3.org/Graphics/SVG/1.1/DTD/svg11.dtd"><svg version="1.1" xmlns="http://www.w3.org/2000/svg" xmlns:xlink="http://www.w3.org/1999/xlink" viewBox="0 0 900 750" width="900" height="750"><g class="svg-logo"><g class="base"><g class="logo-element circle"><circle cx="450" cy="375" r="263" fill="none" stroke="#000" stroke-width="10"></circle></g></g><g class="swag"><g class="logo-element outline-edge-solid"><circle fill="none" stroke="#000" stroke-width="3" cx="450" cy="375" r="248"></circle></g><g class="logo-element horizontal-line-double-solid"><line fill="none" stroke="#000" stroke-width="5" x1="298.845" y1="310.094" x2="601.155" y2="310.094"></line><line fill="none" stroke="#000" stroke-width="5" x1="298.845" y1="449.209" x2="601.155" y2="449.209"></line></g></g><g class="text"><g text-anchor="middle" transform="translate(450,520)" class="logo-element est"><path d="M0.46-2.88C1.22-0.88 3.28 0.50 5.36 0.50C7.88 0.50 9.76-1.52 9.76-3.82C9.76-5.26 9.02-6.44 7.24-7.38C5.72-8.20 2.92-9.02 2.92-10.88C2.92-12.06 4.06-13.02 5.46-13.02C6.36-13.02 7.46-12.62 7.46-11.78C7.46-11.34 7.16-10.94 6.72-11.06L6.64-10.02C7.76-9.90 8.58-10.68 8.58-11.76C8.58-12.72 7.94-13.56 6.70-13.94C6.32-14.06 5.88-14.12 5.46-14.12C3.48-14.12 1.82-12.78 1.82-10.84C1.82-8.26 4.78-7.36 6.66-6.38C7.78-5.80 8.66-5.18 8.66-3.80C8.66-2.08 7.32-0.60 5.34-0.60C3.74-0.60 2.22-1.58 1.48-3.28ZM12.54-14.16C12.08-14.16 11.70-13.78 11.70-13.30C11.70-12.84 12.08-12.46 12.54-12.46C13.02-12.46 13.40-12.84 13.40-13.30C13.40-13.78 13.02-14.16 12.54-14.16ZM13.14-10L12.04-10L12.04-1.60C12.04-0.60 12.82 0.20 13.84 0.20C14.46 0.20 14.98-0.10 15.32-0.60L14.40-1.20C14.26-0.98 14.02-0.90 13.84-0.90C13.50-0.90 13.14-1.18 13.14-1.60ZM16.02-9.44C16.56-8.90 16.82-8.12 16.82-7.06L16.82 0L17.92 0L17.92-7.10C18.82-8.30 19.72-9.12 21.22-9.12C22.74-9.12 23.44-8.36 23.44-6.72L23.44-1.54C23.44-0.58 24.16 0.26 25.24 0.26C25.88 0.26 26.36-0.02 26.72-0.54L25.82-1.14C25.66-0.94 25.46-0.84 25.26-0.84C24.92-0.84 24.54-1.10 24.54-1.54L24.54-7.24C24.42-9.24 23.28-10.16 21.32-10.16C19.92-10.16 18.76-9.64 17.80-8.26C17.66-9 17.34-9.66 16.70-10.10ZM35.50-1.88C34.50-1.36 33.52-0.92 32.34-0.92C30.20-0.92 28.94-2.34 28.94-4.74C28.94-6.84 29.90-9.26 32.26-9.26C33.50-9.26 34.64-8.58 34.64-7.20L35.78-7.20C35.78-9.08 34.06-10.24 32.18-10.24C29.46-10.24 27.82-7.82 27.82-4.76C27.82-1.84 29.32 0.12 32.34 0.12C33.62 0.12 34.84-0.24 36.02-1.04ZM45.50-1.80C44.50-1.28 43.54-0.84 42.30-0.84C40.28-0.84 39.26-1.98 39.02-4L41.38-4C44.04-4 45.78-5.08 45.78-7.08C45.78-8.98 44.18-10.16 42.22-10.16C39.08-10.16 37.82-7.18 37.82-4.60C37.82-1.88 39.22 0.20 42.30 0.20C43.74 0.20 44.98-0.26 46.02-0.96ZM38.96-5.04C38.96-6.66 39.88-9.18 42.28-9.18C43.50-9.18 44.66-8.52 44.66-7.10C44.66-5.56 43.26-5.04 41.38-5.04ZM55.10-9.86C55.56-11.42 56.74-12.30 58.34-12.30C60.02-12.30 61.08-11.30 61.08-9.82C61.08-7.80 59.10-6.60 57.60-5.46C55.60-3.96 54.14-2.44 54.14-0.26L54.14 0L62.86 0L62.86-1.14L55.42-1.14C55.68-2.24 56.44-3.06 57.54-3.96C59.82-5.84 62.20-6.92 62.20-9.80C62.20-11.96 60.84-13.30 58.36-13.30C56.22-13.30 54.86-12.30 54.16-10.34ZM69.86-13.26C66.38-13.26 64.44-10.10 64.44-6.54C64.44-3.02 66.34 0.20 69.86 0.20C73.30 0.20 75.28-2.88 75.28-6.48C75.28-10.04 73.36-13.26 69.86-13.26ZM69.88-12.16C72.62-12.16 74.04-9.52 74.04-6.56C74.04-3.74 72.76-0.90 69.90-0.90C67.12-0.90 65.70-3.62 65.70-6.54C65.70-9.44 67.10-12.16 69.88-12.16ZM81.86 0L81.86-13.38L81.70-13.38C79.80-12.10 78.58-11.22 77.32-11.22L77.58-10.18C78.78-10.18 79.70-10.66 80.64-11.46L80.64 0ZM91.50-11.92L91.50-13.06L84.82-12.92L84.82-7.36L84.92-7.28C85.68-7.58 86.56-7.68 87.48-7.68C89.88-7.68 91.56-7 91.56-4.60C91.56-2.58 90.38-1 88.06-1C86.78-1 85.90-1.48 84.66-2.38L84.42-1.32C84.96-0.80 86.46 0.12 88.24 0.12C90.76 0.12 92.74-1.74 92.74-4.46C92.74-7.16 90.76-8.80 87.80-8.80C87.34-8.80 86.90-8.76 86.04-8.64L86.04-11.84Z" fill="#000" transform="translate(-47,0)"></path></g><g text-anchor="middle" transform="translate(0,0)" class="logo-element lower-arch"><path id="lower-arch-path" fill="none" d="M643.81,375c0-107.039-86.771-193.81-193.809-193.81c-107.04,0-193.811,86.772-193.811,193.81s86.772,193.81,193.811,193.81C557.038,568.81,643.81,482.038,643.81,375z"></path><text x="0" y="0" font-family="quicksand" font-size="24" fill="#000"><textPath xlink:href="#lower-arch-path" alignment-baseline="hanging" startOffset="75%"><!-- react-text: 3950 -->Ipil, Zamboanga Sibugay<!-- /react-text --></textPath></text></g><g text-anchor="middle" transform="translate(0,0)" class="logo-element full-circle"><path id="full-circle-path" transform="rotate(90 450 375)" fill="none" d="M643.81,375c0,107.038-86.771,193.81-193.809,193.81c-107.039,0-193.811-86.771-193.811-193.81s86.771-193.81,193.811-193.81C557.038,181.19,643.81,267.961,643.81,375z"></path><text x="0" y="0" font-family="quicksand" font-size="35" fill="#000"><textPath xlink:href="#full-circle-path" startOffset="50%"><!-- react-text: 3955 -->Ipil Board and Bike Riding Community<!-- /react-text --></textPath></text></g><g text-anchor="middle" transform="translate(450,400)" class="logo-element single-line"><path d="M1.75-48.93L1.75-39.69L6.16-39.69L6.16-9.31L1.75-9.31L1.75 0L24.99 0L24.99-9.31L20.65-9.31L20.65-39.69L24.99-39.69L24.99-48.93ZM45.99 0L72.59 0C86.10 0 91.63-4.34 91.63-14.21C91.63-21.00 87.43-24.71 82.39-26.11C87.64-28.21 89.25-31.08 89.25-36.96C89.25-44.59 83.72-48.93 72.10-48.93L45.99-48.93L45.99-39.90L50.05-39.90L50.05-9.10L45.99-9.10ZM64.54-39.69L68.95-39.69C71.61-39.69 73.57-37.80 73.57-34.58C73.57-31.22 72.52-29.19 68.81-29.19L64.54-29.19ZM64.54-9.10L64.54-21.28L69.93-21.28C73.78-21.28 75.81-18.69 75.81-15.12C75.81-11.34 73.08-9.10 70.14-9.10ZM111.58 0L138.18 0C151.69 0 157.22-4.34 157.22-14.21C157.22-21.00 153.02-24.71 147.98-26.11C153.23-28.21 154.84-31.08 154.84-36.96C154.84-44.59 149.31-48.93 137.69-48.93L111.58-48.93L111.58-39.90L115.64-39.90L115.64-9.10L111.58-9.10ZM130.13-39.69L134.54-39.69C137.20-39.69 139.16-37.80 139.16-34.58C139.16-31.22 138.11-29.19 134.40-29.19L130.13-29.19ZM130.13-9.10L130.13-21.28L135.52-21.28C139.37-21.28 141.40-18.69 141.40-15.12C141.40-11.34 138.67-9.10 135.73-9.10ZM177.17-48.93L177.17-39.76L181.09-39.76L181.09-9.24L177.17-9.24L177.17 0L199.78 0L199.78-9.24L195.51-9.24L195.51-20.09C201.74-20.09 202.51-18.55 202.51-12.18C202.51-3.99 206.92 0.84 216.09 0.84C223.86 0.84 226.31-4.55 226.31-10.36L226.31-14.21L221.62-14.21L221.62-11.90C221.62-10.50 221.06-9.66 220.01-9.66C218.75-9.66 218.33-11.41 218.33-14.42C218.33-19.46 213.99-23.66 209.16-24.36C214.97-25.20 219.31-29.05 219.31-34.51C219.31-42.49 216.16-48.93 199.92-48.93ZM195.51-39.83L199.01-39.83C203.07-39.83 205.38-37.73 205.38-33.60C205.38-29.89 202.72-27.93 198.66-27.93L195.51-27.93ZM283.29-17.71C282.66-17.01 278.04-10.85 272.16-10.85C265.51-10.85 261.94-17.08 261.94-24.01C261.94-31.64 265.23-37.87 270.27-37.87C275.24-37.87 277.48-33.60 277.69-29.05L290.22-29.05L290.22-48.93L279.23-48.93L277.62-45.01C276.99-45.85 273.84-49.77 266.84-49.77C257.67-49.77 245.56-40.11 245.56-24.01C245.56-8.40 255.43 1.12 270.27 1.12C279.44 1.12 286.72-3.50 291.48-8.75Z" fill="#000" transform="translate(-149,0)"></path></g></g></g></svg>